<svg xmlns="http://www.w3.org/2000/svg" xmlns:xlink="http://www.w3.org/1999/xlink" width="940" zoomAndPan="magnify" viewBox="0 0 705 591.000005" height="788" preserveAspectRatio="xMidYMid meet" version="1.0"><defs><clipPath id="2c32605a15"><path d="M 0.59375 0 L 704.402344 0 L 704.402344 590 L 0.59375 590 Z M 0.59375 0 " clip-rule="nonzero"/></clipPath></defs><g clip-path="url(#2c32605a15)"><path fill="#ffffff" d="M 0.59375 0 L 704.40625 0 L 704.40625 597.488281 L 0.59375 597.488281 Z M 0.59375 0 " fill-opacity="1" fill-rule="nonzero"/><path fill="#ffffff" d="M 0.59375 0 L 704.40625 0 L 704.40625 590 L 0.59375 590 Z M 0.59375 0 " fill-opacity="1" fill-rule="nonzero"/><path fill="#ffffff" d="M 0.59375 0 L 704.40625 0 L 704.40625 590 L 0.59375 590 Z M 0.59375 0 " fill-opacity="1" fill-rule="nonzero"/></g><path fill="#008037" d="M 25.417969 225.785156 C 64.917969 205.382812 110.996094 200.683594 154.792969 199.609375 C 201.949219 198.402344 248.972656 201.488281 295.859375 205.785156 C 343.28125 210.214844 390.570312 215.71875 438.128906 219.074219 C 461.773438 220.683594 485.554688 221.621094 509.332031 221.757812 C 531.632812 221.890625 554.203125 222.027344 576.507812 219.339844 C 598.941406 216.65625 621.378906 210.347656 638.574219 194.910156 C 653.621094 181.355469 664.503906 160.683594 660.335938 140.148438 C 658.589844 131.558594 645.15625 133.570312 645.15625 142.160156 C 645.292969 160.414062 638.171875 175.851562 624.066406 187.394531 C 608.210938 200.414062 586.984375 204.980469 567.234375 207.394531 C 522.363281 212.628906 476.6875 210.886719 431.679688 207.796875 C 340.324219 201.355469 249.238281 186.457031 157.480469 189.675781 C 110.730469 191.152344 63.4375 196.523438 22.730469 221.21875 C 19.777344 222.964844 22.328125 227.394531 25.417969 225.785156 Z M 25.417969 225.785156 " fill-opacity="1" fill-rule="nonzero"/><path fill="#008037" d="M 43.152344 195.984375 C 83.1875 181.355469 124.566406 177.863281 166.886719 177.597656 C 169.167969 177.597656 169.976562 173.703125 167.421875 173.4375 C 125.105469 167.128906 81.039062 177.195312 42.210938 194.242188 C 41.40625 194.644531 42.078125 196.386719 43.152344 195.984375 Z M 43.152344 195.984375 " fill-opacity="1" fill-rule="nonzero"/><path fill="#008037" d="M 622.855469 219.476562 C 638.304688 217.328125 652.546875 209.945312 663.292969 198.804688 C 668.800781 193.167969 673.503906 186.722656 676.726562 179.609375 C 679.414062 173.972656 684.386719 163.90625 680.355469 158.132812 C 678.472656 155.449219 675.25 155.046875 672.832031 157.195312 C 668.265625 161.085938 668.9375 169.945312 667.054688 175.582031 C 664.90625 182.027344 661.816406 188.066406 657.917969 193.570312 C 649.1875 205.515625 636.691406 214.242188 622.453125 218.132812 C 621.511719 218.265625 621.914062 219.609375 622.855469 219.476562 Z M 622.855469 219.476562 " fill-opacity="1" fill-rule="nonzero"/></svg>