<svg xmlns="http://www.w3.org/2000/svg" xmlns:xlink="http://www.w3.org/1999/xlink" width="940" zoomAndPan="magnify" viewBox="0 0 705 591.000005" height="788" preserveAspectRatio="xMidYMid meet" version="1.0"><defs><clipPath id="b22d1a8f63"><path d="M 0.59375 0 L 704.402344 0 L 704.402344 590 L 0.59375 590 Z M 0.59375 0 " clip-rule="nonzero"/></clipPath><clipPath id="58ffc2d137"><path d="M 196 74.785156 L 306 74.785156 L 306 168 L 196 168 Z M 196 74.785156 " clip-rule="nonzero"/></clipPath><clipPath id="b6bddb789d"><path d="M 165.679688 81 L 572.242188 81 L 572.242188 481.347656 L 165.679688 481.347656 Z M 165.679688 81 " clip-rule="nonzero"/></clipPath></defs><g clip-path="url(#b22d1a8f63)"><path fill="#ffffff" d="M 0.59375 0 L 704.40625 0 L 704.40625 597.488281 L 0.59375 597.488281 Z M 0.59375 0 " fill-opacity="1" fill-rule="nonzero"/><path fill="#ffffff" d="M 0.59375 0 L 704.40625 0 L 704.40625 590 L 0.59375 590 Z M 0.59375 0 " fill-opacity="1" fill-rule="nonzero"/><path fill="#ffffff" d="M 0.59375 0 L 704.40625 0 L 704.40625 590 L 0.59375 590 Z M 0.59375 0 " fill-opacity="1" fill-rule="nonzero"/></g><g clip-path="url(#58ffc2d137)"><path fill="#000000" d="M 218.789062 120.101562 C 222.808594 119.183594 226.941406 118.640625 231.132812 118.171875 C 233.417969 117.917969 235.398438 116.464844 236.332031 114.367188 L 239.195312 107.917969 C 239.167969 107.878906 239.164062 107.875 239.136719 107.839844 C 236.191406 108.328125 235.3125 102.894531 237.164062 101.378906 C 238.453125 100.324219 241.0625 100.390625 242.632812 100.121094 C 242.648438 100.117188 242.664062 100.105469 242.671875 100.09375 L 245.527344 93.65625 C 245.546875 93.621094 245.519531 93.585938 245.484375 93.585938 C 243.050781 93.546875 242.894531 89.289062 243.949219 87.8125 C 245.074219 86.242188 247.199219 86.230469 248.9375 85.929688 C 248.953125 85.929688 248.96875 85.921875 248.976562 85.90625 L 252.734375 77.4375 C 253.074219 76.675781 254.007812 75.886719 254.8125 75.6875 L 257.8125 74.929688 C 258.617188 74.722656 259.269531 75.242188 259.257812 76.066406 L 258.871094 113.863281 C 258.867188 114.503906 259.425781 115.007812 260.0625 114.9375 C 268.226562 114.027344 275.867188 113.171875 281.078125 112.585938 C 281.339844 112.558594 281.5625 112.40625 281.6875 112.175781 C 282.8125 110.097656 283.9375 108.015625 285.0625 105.933594 C 285.90625 104.378906 286.683594 102.785156 287.582031 101.257812 C 288.394531 99.867188 289.214844 98.238281 290.910156 97.839844 C 292.363281 97.507812 293.890625 97.355469 295.359375 97.117188 C 296.515625 96.925781 297.710938 96.84375 298.429688 97.96875 C 299.117188 99.066406 298.527344 100.714844 298.316406 101.925781 C 298.019531 103.585938 297.726562 105.242188 297.433594 106.898438 C 297.03125 109.171875 296.628906 111.449219 296.226562 113.722656 C 296.167969 114.054688 296.421875 114.351562 296.753906 114.339844 C 297.949219 114.320312 299.140625 114.238281 300.335938 114.195312 C 301.375 114.15625 302.601562 113.980469 303.601562 114.328125 C 304.824219 114.753906 305.609375 116.515625 304.515625 117.507812 C 303.777344 118.183594 302.695312 118.230469 301.789062 118.515625 C 300.929688 118.785156 300.070312 119.058594 299.214844 119.339844 C 298.875 119.449219 298.527344 119.5625 298.183594 119.671875 C 297.867188 119.777344 297.726562 120.144531 297.890625 120.433594 C 298.691406 121.859375 299.488281 123.28125 300.289062 124.707031 C 300.921875 125.839844 301.542969 126.988281 302.199219 128.109375 C 302.917969 129.324219 303.726562 130.582031 304.28125 131.878906 C 304.847656 133.191406 304.039062 134.65625 302.667969 134.917969 C 301.386719 135.164062 300.085938 135.359375 298.808594 135.609375 C 298.003906 135.765625 297.179688 135.886719 296.363281 135.777344 C 295.417969 135.652344 294.839844 135.191406 294.097656 134.613281 C 292.5 133.375 291.117188 131.949219 289.640625 130.582031 C 288.207031 129.25 286.738281 127.933594 285.292969 126.609375 C 285.101562 126.433594 284.839844 126.363281 284.585938 126.417969 C 279.585938 127.570312 271.785156 129.351562 263.382812 131.289062 C 262.757812 131.429688 262.398438 132.082031 262.613281 132.683594 L 274.007812 165.246094 C 274.28125 166.027344 273.828125 166.722656 273.003906 166.789062 L 268.980469 167.117188 C 268.144531 167.179688 266.980469 166.734375 266.398438 166.121094 L 261.675781 161.125 C 261.664062 161.109375 261.648438 161.105469 261.632812 161.109375 C 260.921875 161.230469 260.214844 161.347656 259.503906 161.46875 C 258.453125 161.648438 257.203125 161.917969 256.21875 161.375 C 254.4375 160.386719 253.605469 155.972656 255.839844 155.042969 C 255.871094 155.027344 255.882812 154.988281 255.859375 154.960938 L 251.003906 149.820312 C 250.992188 149.808594 250.976562 149.804688 250.957031 149.804688 C 249.242188 150.097656 247.234375 150.78125 245.671875 149.695312 C 244.199219 148.667969 242.914062 144.613281 245.152344 143.738281 C 245.191406 143.722656 245.203125 143.679688 245.175781 143.65625 L 241.355469 139.613281 C 239.785156 137.945312 237.441406 137.238281 235.203125 137.75 C 228.882812 139.199219 222.507812 140.640625 216.003906 140.960938 C 210.816406 141.210938 200.742188 141.523438 197.488281 136.445312 C 192 127.890625 213.441406 121.324219 218.789062 120.101562 " fill-opacity="1" fill-rule="nonzero"/></g><g clip-path="url(#b6bddb789d)"><path fill="#000000" d="M 486.394531 85.644531 C 486.351562 85.644531 486.308594 85.644531 486.261719 85.636719 C 482.410156 85.304688 478.367188 85.09375 474.242188 85.011719 C 473.40625 84.996094 472.738281 84.304688 472.753906 83.46875 C 472.769531 82.636719 473.449219 81.980469 474.269531 81.980469 C 474.28125 81.980469 474.292969 81.980469 474.300781 81.980469 C 478.5 82.0625 482.609375 82.273438 486.527344 82.617188 C 487.359375 82.6875 487.976562 83.425781 487.90625 84.261719 C 487.835938 85.050781 487.171875 85.644531 486.394531 85.644531 Z M 443.96875 86.394531 C 443.199219 86.394531 442.539062 85.8125 442.457031 85.03125 C 442.378906 84.199219 442.984375 83.453125 443.816406 83.367188 C 447.976562 82.949219 452.066406 82.617188 455.976562 82.382812 C 456.824219 82.339844 457.53125 82.96875 457.578125 83.804688 C 457.632812 84.644531 456.992188 85.359375 456.15625 85.410156 C 452.289062 85.644531 448.242188 85.96875 444.121094 86.386719 C 444.074219 86.394531 444.019531 86.394531 443.96875 86.394531 Z M 413.917969 90.675781 C 413.195312 90.675781 412.558594 90.160156 412.429688 89.425781 C 412.28125 88.601562 412.832031 87.8125 413.65625 87.664062 C 417.792969 86.933594 421.84375 86.261719 425.679688 85.679688 C 426.5 85.574219 427.285156 86.128906 427.410156 86.957031 C 427.535156 87.785156 426.964844 88.5625 426.132812 88.6875 C 422.320312 89.261719 418.300781 89.925781 414.183594 90.65625 C 414.097656 90.671875 414.003906 90.675781 413.917969 90.675781 Z M 516.09375 91.535156 C 515.933594 91.535156 515.773438 91.511719 515.609375 91.460938 C 511.953125 90.230469 508.066406 89.164062 504.066406 88.289062 C 503.25 88.109375 502.726562 87.308594 502.90625 86.484375 C 503.085938 85.664062 503.902344 85.148438 504.710938 85.328125 C 508.820312 86.226562 512.808594 87.316406 516.578125 88.578125 C 517.371094 88.84375 517.800781 89.703125 517.535156 90.503906 C 517.320312 91.132812 516.730469 91.535156 516.09375 91.535156 Z M 384.152344 96.675781 C 383.457031 96.675781 382.824219 96.191406 382.671875 95.488281 C 382.488281 94.664062 383.007812 93.855469 383.824219 93.675781 C 388.046875 92.746094 391.9375 91.910156 395.714844 91.128906 C 396.539062 90.953125 397.34375 91.484375 397.511719 92.308594 C 397.683594 93.128906 397.15625 93.933594 396.335938 94.101562 C 392.570312 94.882812 388.6875 95.710938 384.476562 96.640625 C 384.367188 96.664062 384.257812 96.675781 384.152344 96.675781 Z M 354.558594 103.46875 C 353.867188 103.46875 353.242188 102.996094 353.078125 102.296875 C 352.886719 101.480469 353.398438 100.667969 354.214844 100.476562 L 366.046875 97.71875 C 366.863281 97.53125 367.675781 98.039062 367.867188 98.855469 C 368.058594 99.671875 367.546875 100.488281 366.730469 100.675781 L 354.898438 103.433594 C 354.785156 103.460938 354.671875 103.46875 354.558594 103.46875 Z M 542.746094 105.703125 C 542.414062 105.703125 542.082031 105.597656 541.804688 105.371094 C 538.734375 102.949219 535.421875 100.703125 531.949219 98.714844 C 531.21875 98.300781 530.96875 97.371094 531.382812 96.644531 C 531.800781 95.914062 532.730469 95.664062 533.453125 96.085938 C 537.0625 98.148438 540.503906 100.476562 543.6875 102.996094 C 544.34375 103.515625 544.457031 104.472656 543.9375 105.128906 C 543.636719 105.503906 543.191406 105.703125 542.746094 105.703125 Z M 324.890625 109.953125 C 324.179688 109.953125 323.542969 109.449219 323.410156 108.722656 C 323.246094 107.898438 323.785156 107.105469 324.609375 106.945312 C 328.179688 106.257812 332.054688 105.453125 336.46875 104.496094 C 337.285156 104.3125 338.09375 104.835938 338.273438 105.65625 C 338.453125 106.476562 337.929688 107.285156 337.117188 107.464844 C 332.679688 108.425781 328.777344 109.230469 325.1875 109.925781 C 325.085938 109.945312 324.988281 109.953125 324.890625 109.953125 Z M 562.351562 128.597656 C 561.8125 128.597656 561.296875 128.3125 561.019531 127.808594 C 559.976562 125.890625 558.824219 124.019531 557.589844 122.242188 C 556.574219 120.78125 555.503906 119.339844 554.40625 117.964844 C 553.882812 117.308594 553.992188 116.351562 554.648438 115.828125 C 555.308594 115.308594 556.257812 115.421875 556.78125 116.074219 C 557.917969 117.503906 559.023438 119 560.078125 120.515625 C 561.378906 122.378906 562.589844 124.339844 563.683594 126.359375 C 564.085938 127.089844 563.8125 128.011719 563.078125 128.414062 C 562.847656 128.539062 562.601562 128.597656 562.351562 128.597656 Z M 570.503906 157.585938 C 569.710938 157.585938 569.042969 156.972656 568.988281 156.167969 C 568.722656 152.164062 568.144531 148.207031 567.269531 144.414062 C 567.078125 143.597656 567.589844 142.78125 568.40625 142.59375 C 569.226562 142.414062 570.035156 142.914062 570.226562 143.726562 C 571.140625 147.679688 571.742188 151.800781 572.019531 155.96875 C 572.074219 156.804688 571.4375 157.527344 570.605469 157.582031 C 570.570312 157.585938 570.535156 157.585938 570.503906 157.585938 Z M 567.050781 187.585938 C 566.90625 187.585938 566.757812 187.5625 566.617188 187.519531 C 565.8125 187.28125 565.355469 186.4375 565.597656 185.632812 C 566.726562 181.824219 567.601562 177.910156 568.199219 173.996094 C 568.324219 173.171875 569.113281 172.597656 569.925781 172.722656 C 570.757812 172.855469 571.324219 173.625 571.199219 174.453125 C 570.585938 178.503906 569.675781 182.554688 568.503906 186.496094 C 568.308594 187.15625 567.703125 187.585938 567.050781 187.585938 Z M 554.21875 214.976562 C 553.941406 214.976562 553.664062 214.90625 553.414062 214.75 C 552.703125 214.304688 552.488281 213.367188 552.933594 212.65625 C 555.003906 209.339844 556.980469 205.824219 558.8125 202.210938 C 559.195312 201.460938 560.105469 201.160156 560.855469 201.542969 C 561.601562 201.921875 561.898438 202.835938 561.519531 203.578125 C 559.644531 207.277344 557.621094 210.867188 555.507812 214.265625 C 555.21875 214.726562 554.726562 214.976562 554.21875 214.976562 Z M 535.164062 238.460938 C 534.761719 238.460938 534.359375 238.304688 534.0625 237.988281 C 533.484375 237.378906 533.511719 236.417969 534.121094 235.84375 C 536.992188 233.125 539.761719 230.207031 542.355469 227.164062 C 542.898438 226.527344 543.855469 226.449219 544.492188 226.992188 C 545.132812 227.539062 545.207031 228.492188 544.664062 229.128906 C 542.003906 232.253906 539.152344 235.253906 536.207031 238.042969 C 535.914062 238.324219 535.539062 238.460938 535.164062 238.460938 Z M 510.613281 256.113281 C 510.078125 256.113281 509.550781 255.828125 509.277344 255.316406 C 508.878906 254.578125 509.15625 253.660156 509.898438 253.261719 C 513.433594 251.363281 516.882812 249.277344 520.140625 247.070312 C 520.832031 246.605469 521.777344 246.78125 522.25 247.472656 C 522.71875 248.167969 522.539062 249.113281 521.84375 249.582031 C 518.5 251.847656 514.960938 253.988281 511.332031 255.9375 C 511.105469 256.0625 510.855469 256.113281 510.613281 256.113281 Z M 252.957031 261.859375 C 252.941406 261.859375 252.9375 261.859375 252.925781 261.859375 C 248.757812 261.777344 244.761719 261.769531 240.839844 261.839844 C 240.828125 261.839844 240.820312 261.839844 240.8125 261.839844 C 239.984375 261.839844 239.3125 261.175781 239.292969 260.347656 C 239.277344 259.507812 239.945312 258.816406 240.785156 258.800781 C 244.746094 258.734375 248.777344 258.746094 252.984375 258.828125 C 253.824219 258.84375 254.492188 259.535156 254.476562 260.371094 C 254.453125 261.203125 253.78125 261.859375 252.957031 261.859375 Z M 283.265625 263.480469 C 283.226562 263.480469 283.183594 263.480469 283.140625 263.472656 C 278.949219 263.136719 274.882812 262.847656 271.058594 262.617188 C 270.21875 262.566406 269.585938 261.847656 269.632812 261.011719 C 269.6875 260.175781 270.40625 259.550781 271.242188 259.589844 C 275.085938 259.820312 279.171875 260.109375 283.382812 260.453125 C 284.222656 260.515625 284.839844 261.246094 284.777344 262.082031 C 284.710938 262.875 284.046875 263.480469 283.265625 263.480469 Z M 210.597656 264.355469 C 209.871094 264.355469 209.222656 263.828125 209.101562 263.089844 C 208.96875 262.261719 209.527344 261.480469 210.351562 261.34375 C 214.195312 260.707031 218.28125 260.1875 222.496094 259.785156 C 223.308594 259.703125 224.066406 260.316406 224.148438 261.152344 C 224.230469 261.984375 223.613281 262.730469 222.777344 262.804688 C 218.636719 263.195312 214.621094 263.714844 210.847656 264.339844 C 210.761719 264.347656 210.679688 264.355469 210.597656 264.355469 Z M 313.472656 266.367188 C 313.425781 266.367188 313.371094 266.367188 313.316406 266.355469 C 309.273438 265.929688 305.25 265.511719 301.25 265.117188 C 300.417969 265.035156 299.808594 264.289062 299.890625 263.453125 C 299.972656 262.621094 300.722656 261.996094 301.546875 262.09375 C 305.554688 262.492188 309.582031 262.910156 313.636719 263.339844 C 314.46875 263.425781 315.070312 264.175781 314.984375 265.007812 C 314.902344 265.789062 314.246094 266.367188 313.472656 266.367188 Z M 482.449219 267.257812 C 481.785156 267.257812 481.171875 266.816406 480.988281 266.144531 C 480.765625 265.339844 481.234375 264.5 482.042969 264.273438 C 485.972656 263.179688 489.820312 261.941406 493.484375 260.597656 C 494.269531 260.3125 495.140625 260.714844 495.429688 261.5 C 495.722656 262.285156 495.316406 263.160156 494.53125 263.445312 C 490.792969 264.820312 486.863281 266.082031 482.859375 267.199219 C 482.722656 267.234375 482.582031 267.257812 482.449219 267.257812 Z M 343.648438 269.636719 C 343.59375 269.636719 343.539062 269.632812 343.484375 269.625 C 339.457031 269.199219 335.425781 268.761719 331.414062 268.324219 C 330.578125 268.230469 329.980469 267.480469 330.066406 266.648438 C 330.160156 265.816406 330.910156 265.21875 331.742188 265.304688 C 335.757812 265.742188 339.777344 266.179688 343.8125 266.609375 C 344.644531 266.695312 345.246094 267.449219 345.160156 268.277344 C 345.074219 269.054688 344.414062 269.636719 343.648438 269.636719 Z M 373.867188 272.5625 C 373.824219 272.5625 373.78125 272.5625 373.742188 272.554688 C 369.898438 272.234375 365.9375 271.882812 361.628906 271.46875 C 360.789062 271.394531 360.175781 270.652344 360.257812 269.816406 C 360.339844 268.980469 361.074219 268.359375 361.914062 268.453125 C 366.214844 268.859375 370.160156 269.214844 373.992188 269.535156 C 374.828125 269.605469 375.449219 270.332031 375.378906 271.171875 C 375.3125 271.964844 374.648438 272.5625 373.867188 272.5625 Z M 452.664062 272.914062 C 451.90625 272.914062 451.253906 272.34375 451.160156 271.566406 C 451.066406 270.734375 451.660156 269.984375 452.496094 269.886719 C 456.574219 269.421875 460.589844 268.847656 464.425781 268.191406 C 465.253906 268.050781 466.042969 268.605469 466.183594 269.429688 C 466.324219 270.257812 465.769531 271.039062 464.945312 271.179688 C 461.046875 271.851562 456.976562 272.425781 452.839844 272.902344 C 452.785156 272.910156 452.726562 272.914062 452.664062 272.914062 Z M 182.148438 274.246094 C 181.660156 274.246094 181.175781 274.011719 180.890625 273.578125 C 180.421875 272.882812 180.605469 271.9375 181.300781 271.46875 C 184.503906 269.324219 188.25 267.441406 192.4375 265.871094 C 193.222656 265.582031 194.097656 265.980469 194.390625 266.761719 C 194.683594 267.550781 194.285156 268.425781 193.503906 268.71875 C 189.535156 270.203125 186 271.976562 182.992188 273.992188 C 182.730469 274.164062 182.4375 274.246094 182.148438 274.246094 Z M 404.171875 274.421875 C 404.152344 274.421875 404.136719 274.421875 404.121094 274.421875 C 400.226562 274.285156 396.136719 274.09375 391.957031 273.855469 C 391.117188 273.804688 390.476562 273.089844 390.527344 272.25 C 390.574219 271.414062 391.28125 270.777344 392.128906 270.824219 C 396.289062 271.0625 400.351562 271.25 404.222656 271.382812 C 405.058594 271.414062 405.71875 272.117188 405.683594 272.953125 C 405.65625 273.773438 404.984375 274.421875 404.171875 274.421875 Z M 422.382812 274.664062 C 421.550781 274.664062 420.871094 273.996094 420.863281 273.164062 C 420.855469 272.328125 421.527344 271.644531 422.363281 271.632812 C 426.507812 271.59375 430.570312 271.484375 434.445312 271.304688 C 435.257812 271.285156 435.996094 271.914062 436.035156 272.75 C 436.074219 273.589844 435.425781 274.300781 434.589844 274.339844 C 430.675781 274.519531 426.570312 274.628906 422.390625 274.664062 C 422.386719 274.664062 422.386719 274.664062 422.382812 274.664062 Z M 167.453125 299.480469 C 167.421875 299.480469 167.394531 299.480469 167.363281 299.480469 C 166.523438 299.433594 165.886719 298.710938 165.9375 297.871094 C 166.203125 293.464844 167.203125 289.339844 168.914062 285.601562 C 169.265625 284.839844 170.160156 284.507812 170.925781 284.855469 C 171.6875 285.203125 172.023438 286.105469 171.671875 286.867188 C 170.121094 290.257812 169.210938 294.023438 168.964844 298.058594 C 168.921875 298.863281 168.253906 299.480469 167.453125 299.480469 Z M 175.324219 328.34375 C 174.808594 328.34375 174.308594 328.082031 174.019531 327.609375 C 171.863281 324.019531 170.085938 320.234375 168.738281 316.351562 C 168.460938 315.558594 168.878906 314.695312 169.671875 314.421875 C 170.460938 314.144531 171.328125 314.5625 171.601562 315.359375 C 172.882812 319.039062 174.570312 322.636719 176.621094 326.042969 C 177.050781 326.761719 176.820312 327.695312 176.101562 328.125 C 175.855469 328.269531 175.589844 328.34375 175.324219 328.34375 Z M 194.359375 351.910156 C 193.949219 351.910156 193.542969 351.746094 193.242188 351.417969 C 190.542969 348.511719 187.742188 345.496094 185.050781 342.390625 C 184.503906 341.761719 184.570312 340.804688 185.203125 340.25 C 185.835938 339.707031 186.792969 339.773438 187.339844 340.402344 C 190.003906 343.46875 192.78125 346.460938 195.464844 349.359375 C 196.035156 349.972656 196.003906 350.929688 195.390625 351.5 C 195.097656 351.773438 194.726562 351.910156 194.359375 351.910156 Z M 213.550781 375.367188 C 213.054688 375.367188 212.566406 375.128906 212.277344 374.675781 C 210.128906 371.394531 207.761719 368.125 205.234375 364.972656 C 204.710938 364.324219 204.816406 363.367188 205.472656 362.839844 C 206.125 362.316406 207.082031 362.425781 207.601562 363.078125 C 210.191406 366.304688 212.621094 369.648438 214.816406 373.019531 C 215.277344 373.71875 215.074219 374.664062 214.375 375.121094 C 214.121094 375.285156 213.832031 375.367188 213.550781 375.367188 Z M 226.410156 402.742188 C 225.75 402.742188 225.148438 402.3125 224.953125 401.652344 C 223.855469 397.921875 222.472656 394.148438 220.847656 390.4375 C 220.511719 389.671875 220.859375 388.773438 221.625 388.4375 C 222.398438 388.105469 223.289062 388.453125 223.625 389.21875 C 225.304688 393.050781 226.730469 396.945312 227.863281 400.792969 C 228.097656 401.601562 227.636719 402.445312 226.832031 402.675781 C 226.691406 402.722656 226.550781 402.742188 226.410156 402.742188 Z M 229.386719 432.746094 C 229.328125 432.746094 229.273438 432.738281 229.21875 432.734375 C 228.382812 432.640625 227.785156 431.890625 227.875 431.058594 C 228.125 428.789062 228.257812 426.496094 228.265625 424.238281 L 228.265625 423.941406 C 228.265625 422.378906 228.210938 420.78125 228.113281 419.199219 C 228.0625 418.363281 228.691406 417.644531 229.527344 417.589844 C 230.363281 417.554688 231.089844 418.167969 231.140625 419.003906 C 231.246094 420.652344 231.300781 422.316406 231.300781 423.941406 L 231.300781 424.246094 C 231.292969 426.609375 231.152344 429.015625 230.890625 431.390625 C 230.804688 432.167969 230.148438 432.746094 229.386719 432.746094 Z M 219.503906 461.171875 C 219.230469 461.171875 218.945312 461.09375 218.691406 460.9375 C 217.984375 460.484375 217.777344 459.550781 218.222656 458.84375 C 220.308594 455.550781 222.113281 452 223.585938 448.289062 C 223.898438 447.507812 224.785156 447.132812 225.558594 447.4375 C 226.335938 447.746094 226.71875 448.625 226.410156 449.410156 C 224.863281 453.292969 222.972656 457.019531 220.789062 460.46875 C 220.5 460.925781 220.003906 461.171875 219.503906 461.171875 Z M 197.347656 481.316406 C 196.78125 481.316406 196.238281 481.003906 195.976562 480.453125 C 195.617188 479.699219 195.9375 478.789062 196.695312 478.433594 C 200.1875 476.761719 203.515625 474.636719 206.59375 472.117188 C 207.238281 471.582031 208.195312 471.675781 208.726562 472.328125 C 209.261719 472.976562 209.164062 473.933594 208.515625 474.457031 C 205.253906 477.136719 201.714844 479.398438 198.003906 481.171875 C 197.792969 481.269531 197.570312 481.316406 197.347656 481.316406 " fill-opacity="1" fill-rule="nonzero"/></g></svg>