<svg xmlns="http://www.w3.org/2000/svg" xmlns:xlink="http://www.w3.org/1999/xlink" width="940" zoomAndPan="magnify" viewBox="0 0 705 591.000005" height="788" preserveAspectRatio="xMidYMid meet" version="1.0"><defs><clipPath id="502cdba881"><path d="M 0.59375 0 L 704.402344 0 L 704.402344 590 L 0.59375 590 Z M 0.59375 0 " clip-rule="nonzero"/></clipPath><clipPath id="3b7c2bc29c"><path d="M 26.359375 96 L 452 96 L 452 580.703125 L 26.359375 580.703125 Z M 26.359375 96 " clip-rule="nonzero"/></clipPath></defs><g clip-path="url(#502cdba881)"><path fill="#ffffff" d="M 0.59375 0 L 704.40625 0 L 704.40625 597.488281 L 0.59375 597.488281 Z M 0.59375 0 " fill-opacity="1" fill-rule="nonzero"/><path fill="#ffffff" d="M 0.59375 0 L 704.40625 0 L 704.40625 590 L 0.59375 590 Z M 0.59375 0 " fill-opacity="1" fill-rule="nonzero"/><path fill="#ffffff" d="M 0.59375 0 L 704.40625 0 L 704.40625 590 L 0.59375 590 Z M 0.59375 0 " fill-opacity="1" fill-rule="nonzero"/></g><path fill="#e9e9e9" d="M 632.265625 104.292969 C 624.699219 105.1875 617.023438 105.386719 609.242188 105.421875 C 604.992188 105.441406 601.074219 107.71875 598.957031 111.382812 L 592.433594 122.664062 L 592.523438 122.808594 C 598.027344 122.480469 598.574219 132.632812 594.875 135.058594 C 592.304688 136.734375 587.527344 136.113281 584.59375 136.296875 C 584.558594 136.296875 584.539062 136.316406 584.519531 136.351562 L 578.011719 147.597656 C 578.011719 147.597656 578.011719 147.722656 578.085938 147.742188 C 582.550781 148.289062 582.003906 156.125 579.78125 158.625 C 577.410156 161.285156 573.507812 160.902344 570.265625 161.101562 C 570.226562 161.101562 570.210938 161.121094 570.191406 161.15625 L 561.625 175.957031 C 560.859375 177.285156 558.980469 178.542969 557.46875 178.761719 L 551.816406 179.566406 C 550.304688 179.78125 549.210938 178.707031 549.375 177.195312 L 557.484375 107.9375 C 557.632812 106.753906 556.703125 105.734375 555.5 105.734375 C 540.351562 105.804688 526.148438 105.878906 516.46875 105.933594 C 515.996094 105.933594 515.558594 106.171875 515.285156 106.570312 C 512.804688 110.160156 510.34375 113.769531 507.863281 117.359375 C 506.003906 120.058594 504.273438 122.828125 502.339844 125.453125 C 500.570312 127.839844 498.75 130.683594 495.558594 131.066406 C 492.824219 131.394531 490 131.375 487.265625 131.523438 C 485.09375 131.648438 482.890625 131.558594 481.796875 129.351562 C 480.738281 127.203125 482.140625 124.304688 482.78125 122.117188 C 483.636719 119.128906 484.511719 116.15625 485.367188 113.167969 C 486.554688 109.066406 487.738281 104.984375 488.921875 100.886719 C 489.085938 100.300781 488.6875 99.699219 488.066406 99.644531 C 485.859375 99.464844 483.671875 99.371094 481.46875 99.207031 C 479.554688 99.082031 477.257812 99.152344 475.488281 98.316406 C 473.335938 97.292969 472.242188 93.921875 474.449219 92.300781 C 475.925781 91.207031 477.929688 91.335938 479.644531 90.988281 C 481.265625 90.660156 482.90625 90.332031 484.53125 89.984375 C 485.1875 89.839844 485.84375 89.710938 486.480469 89.566406 C 487.082031 89.4375 487.410156 88.800781 487.171875 88.234375 C 485.988281 85.464844 484.804688 82.695312 483.601562 79.925781 C 482.652344 77.71875 481.742188 75.496094 480.757812 73.308594 C 479.679688 70.941406 478.441406 68.480469 477.675781 65.984375 C 476.890625 63.46875 478.679688 60.933594 481.230469 60.714844 C 483.636719 60.515625 486.0625 60.40625 488.449219 60.207031 C 489.945312 60.078125 491.492188 60.023438 492.96875 60.371094 C 494.683594 60.789062 495.648438 61.738281 496.90625 62.9375 C 499.605469 65.527344 501.847656 68.40625 504.292969 71.214844 C 506.660156 73.929688 509.105469 76.644531 511.492188 79.359375 C 511.820312 79.726562 512.277344 79.90625 512.75 79.851562 C 522.15625 78.722656 536.8125 76.972656 552.617188 75.078125 C 553.785156 74.933594 554.585938 73.800781 554.3125 72.671875 L 539.765625 10.703125 C 539.421875 9.210938 540.386719 8.027344 541.917969 8.0625 L 549.355469 8.246094 C 550.90625 8.28125 552.964844 9.339844 553.894531 10.578125 L 561.585938 20.675781 C 561.585938 20.675781 561.640625 20.710938 561.679688 20.710938 C 563.007812 20.621094 564.320312 20.546875 565.652344 20.457031 C 567.621094 20.328125 569.953125 20.074219 571.648438 21.277344 C 574.730469 23.445312 575.40625 31.699219 571.121094 32.957031 C 571.046875 32.976562 571.03125 33.050781 571.066406 33.105469 L 578.980469 43.492188 C 578.980469 43.492188 579.035156 43.527344 579.070312 43.527344 C 582.277344 43.328125 586.089844 42.453125 588.75 44.769531 C 591.246094 46.9375 592.816406 54.628906 588.53125 55.792969 C 588.457031 55.792969 588.441406 55.886719 588.476562 55.941406 L 594.691406 64.105469 C 597.261719 67.476562 601.417969 69.226562 605.628906 68.734375 C 617.515625 67.3125 629.492188 65.910156 641.488281 66.601562 C 651.058594 67.148438 669.597656 68.554688 674.59375 78.503906 C 683 95.269531 642.363281 103.125 632.300781 104.3125 Z M 632.265625 104.292969 " fill-opacity="1" fill-rule="nonzero"/><g clip-path="url(#3b7c2bc29c)"><path fill="#e9e9e9" d="M 29.421875 580.5625 C 27.761719 580.5625 26.414062 579.25 26.378906 577.574219 C 26.304688 574.148438 26.269531 570.738281 26.269531 567.3125 C 26.269531 562.574219 26.339844 557.761719 26.488281 552.988281 C 26.542969 551.308594 27.945312 549.980469 29.640625 550.035156 C 31.316406 550.089844 32.648438 551.492188 32.59375 553.1875 C 32.449219 557.890625 32.375 562.648438 32.375 567.3125 C 32.375 570.683594 32.410156 574.054688 32.484375 577.425781 C 32.519531 579.105469 31.191406 580.507812 29.496094 580.542969 L 29.421875 580.542969 Z M 30.953125 531.773438 C 30.953125 531.773438 30.789062 531.773438 30.699219 531.773438 C 29.019531 531.628906 27.761719 530.152344 27.910156 528.472656 C 28.601562 520.382812 29.511719 512.160156 30.625 504.050781 C 30.863281 502.375 32.394531 501.226562 34.070312 501.445312 C 35.746094 501.683594 36.914062 503.214844 36.675781 504.890625 C 35.582031 512.890625 34.671875 521 33.996094 529.003906 C 33.871094 530.589844 32.519531 531.792969 30.953125 531.792969 Z M 37.589844 483.421875 C 37.40625 483.421875 37.207031 483.421875 37.003906 483.367188 C 35.347656 483.054688 34.269531 481.453125 34.582031 479.792969 C 36.113281 471.773438 37.863281 463.699219 39.792969 455.789062 C 40.195312 454.148438 41.835938 453.148438 43.476562 453.546875 C 45.117188 453.949219 46.121094 455.609375 45.71875 457.230469 C 43.804688 465.050781 42.074219 473.03125 40.558594 480.941406 C 40.285156 482.398438 39.011719 483.421875 37.570312 483.421875 Z M 49.164062 435.996094 C 48.875 435.996094 48.582031 435.960938 48.289062 435.871094 C 46.667969 435.378906 45.757812 433.683594 46.25 432.078125 C 48.582031 424.261719 51.152344 416.40625 53.886719 408.730469 C 54.453125 407.148438 56.203125 406.308594 57.789062 406.875 C 59.375 407.4375 60.210938 409.1875 59.648438 410.773438 C 56.949219 418.355469 54.414062 426.121094 52.117188 433.828125 C 51.71875 435.160156 50.515625 436.015625 49.203125 436.015625 Z M 65.5 389.996094 C 65.117188 389.996094 64.714844 389.921875 64.332031 389.757812 C 62.78125 389.121094 62.035156 387.335938 62.671875 385.769531 C 65.789062 378.222656 69.144531 370.660156 72.644531 363.3125 C 73.375 361.785156 75.195312 361.144531 76.710938 361.875 C 78.242188 362.601562 78.878906 364.425781 78.148438 365.9375 C 74.703125 373.191406 71.386719 380.664062 68.304688 388.121094 C 67.8125 389.304688 66.683594 390.015625 65.480469 390.015625 Z M 86.425781 345.890625 C 85.933594 345.890625 85.441406 345.78125 84.988281 345.527344 C 83.511719 344.722656 82.945312 342.882812 83.746094 341.390625 C 87.628906 334.207031 91.730469 327.027344 95.960938 320.066406 C 96.835938 318.625 98.714844 318.167969 100.152344 319.042969 C 101.59375 319.917969 102.050781 321.796875 101.175781 323.234375 C 97 330.105469 92.953125 337.195312 89.125 344.285156 C 88.578125 345.308594 87.519531 345.890625 86.425781 345.890625 Z M 111.765625 304.171875 C 111.183594 304.171875 110.582031 304.007812 110.050781 303.644531 C 108.667969 302.695312 108.300781 300.800781 109.25 299.398438 C 113.863281 292.636719 118.695312 285.929688 123.617188 279.457031 C 124.636719 278.109375 126.550781 277.855469 127.898438 278.875 C 129.25 279.894531 129.503906 281.808594 128.484375 283.160156 C 123.617188 289.539062 118.859375 296.171875 114.300781 302.84375 C 113.714844 303.714844 112.75 304.171875 111.765625 304.171875 Z M 141.335938 265.332031 C 140.640625 265.332031 139.929688 265.097656 139.367188 264.605469 C 138.070312 263.511719 137.925781 261.578125 139.019531 260.304688 C 140.515625 258.535156 142.046875 256.769531 143.578125 255.035156 C 147.421875 250.644531 151.417969 246.269531 155.445312 242.003906 C 156.613281 240.785156 158.527344 240.730469 159.765625 241.894531 C 160.988281 243.0625 161.042969 244.996094 159.875 246.214844 C 155.902344 250.40625 151.964844 254.726562 148.171875 259.0625 C 146.65625 260.796875 145.164062 262.527344 143.6875 264.257812 C 143.085938 264.96875 142.226562 265.332031 141.351562 265.332031 Z M 174.894531 229.886719 C 174.09375 229.886719 173.292969 229.574219 172.691406 228.9375 C 171.523438 227.714844 171.578125 225.785156 172.800781 224.617188 C 178.707031 219.023438 184.847656 213.480469 191.066406 208.179688 C 192.34375 207.085938 194.273438 207.230469 195.367188 208.523438 C 196.460938 209.800781 196.316406 211.734375 195.023438 212.824219 C 188.878906 218.074219 182.824219 223.523438 176.992188 229.066406 C 176.410156 229.628906 175.644531 229.902344 174.894531 229.902344 Z M 212.011719 198.171875 C 211.101562 198.171875 210.1875 197.753906 209.585938 196.988281 C 208.566406 195.65625 208.804688 193.742188 210.152344 192.703125 C 216.605469 187.746094 223.277344 182.882812 230.023438 178.234375 C 231.410156 177.269531 233.324219 177.632812 234.269531 179.019531 C 235.238281 180.402344 234.871094 182.296875 233.488281 183.265625 C 226.832031 187.855469 220.234375 192.648438 213.871094 197.535156 C 213.324219 197.953125 212.667969 198.171875 212.011719 198.171875 Z M 252.191406 170.453125 C 251.167969 170.453125 250.167969 169.941406 249.582031 168.992188 C 248.691406 167.554688 249.144531 165.675781 250.585938 164.800781 C 257.515625 160.519531 264.660156 156.363281 271.824219 152.445312 C 273.300781 151.644531 275.160156 152.171875 275.960938 153.648438 C 276.78125 155.125 276.234375 156.984375 274.757812 157.785156 C 267.6875 161.667969 260.632812 165.769531 253.792969 169.996094 C 253.300781 170.304688 252.738281 170.453125 252.191406 170.453125 Z M 294.996094 146.960938 C 293.863281 146.960938 292.769531 146.320312 292.242188 145.246094 C 291.511719 143.734375 292.132812 141.910156 293.664062 141.164062 C 301.011719 137.609375 308.539062 134.183594 316.050781 131.011719 C 317.597656 130.355469 319.386719 131.085938 320.042969 132.632812 C 320.699219 134.183594 319.96875 135.96875 318.417969 136.625 C 311.019531 139.761719 303.582031 143.132812 296.324219 146.648438 C 295.886719 146.847656 295.449219 146.957031 294.996094 146.957031 Z M 339.949219 127.929688 C 338.710938 127.929688 337.523438 127.167969 337.085938 125.925781 C 336.503906 124.339844 337.324219 122.589844 338.910156 122.007812 C 346.585938 119.21875 354.421875 116.578125 362.207031 114.191406 C 363.8125 113.699219 365.527344 114.589844 366.019531 116.210938 C 366.511719 117.816406 365.597656 119.53125 363.996094 120.023438 C 356.320312 122.371094 348.570312 124.980469 340.988281 127.730469 C 340.640625 127.859375 340.296875 127.914062 339.949219 127.914062 Z M 386.617188 113.605469 C 385.25 113.605469 384.011719 112.675781 383.664062 111.292969 C 383.246094 109.652344 384.246094 107.992188 385.886719 107.59375 C 393.816406 105.605469 401.894531 103.800781 409.878906 102.234375 C 411.539062 101.90625 413.140625 103 413.453125 104.640625 C 413.78125 106.296875 412.703125 107.902344 411.046875 108.230469 C 403.152344 109.777344 395.183594 111.546875 387.363281 113.515625 C 387.109375 113.570312 386.871094 113.605469 386.617188 113.605469 Z M 434.527344 104.238281 C 433.03125 104.238281 431.71875 103.144531 431.5 101.613281 C 431.261719 99.9375 432.429688 98.40625 434.089844 98.167969 C 438.664062 97.53125 443.3125 96.949219 447.90625 96.4375 C 449.582031 96.253906 451.097656 97.457031 451.277344 99.136719 C 451.460938 100.8125 450.257812 102.324219 448.582031 102.507812 C 444.058594 103 439.464844 103.582031 434.945312 104.21875 C 434.800781 104.238281 434.652344 104.257812 434.507812 104.257812 Z M 434.527344 104.238281 " fill-opacity="1" fill-rule="nonzero"/></g></svg>