<svg xmlns="http://www.w3.org/2000/svg" xmlns:xlink="http://www.w3.org/1999/xlink" width="940" zoomAndPan="magnify" viewBox="0 0 705 591.000005" height="788" preserveAspectRatio="xMidYMid meet" version="1.0"><defs><clipPath id="4013d1328a"><path d="M 0.59375 0 L 704.402344 0 L 704.402344 590 L 0.59375 590 Z M 0.59375 0 " clip-rule="nonzero"/></clipPath><clipPath id="816f77c84c"><path d="M 0.59375 182.160156 L 704.402344 182.160156 L 704.402344 366.347656 L 0.59375 366.347656 Z M 0.59375 182.160156 " clip-rule="nonzero"/></clipPath></defs><g clip-path="url(#4013d1328a)"><path fill="#ffffff" d="M 0.59375 0 L 704.40625 0 L 704.40625 597.488281 L 0.59375 597.488281 Z M 0.59375 0 " fill-opacity="1" fill-rule="nonzero"/><path fill="#ffffff" d="M 0.59375 0 L 704.40625 0 L 704.40625 590 L 0.59375 590 Z M 0.59375 0 " fill-opacity="1" fill-rule="nonzero"/><path fill="#ffffff" d="M 0.59375 0 L 704.40625 0 L 704.40625 590 L 0.59375 590 Z M 0.59375 0 " fill-opacity="1" fill-rule="nonzero"/></g><g clip-path="url(#816f77c84c)"><path fill="#f5e8e9" d="M 123.269531 356.3125 L 124.847656 354.265625 C 135.152344 345.785156 148.816406 348.574219 155.585938 356.835938 C 150.59375 355.078125 144.804688 354.078125 138.632812 354.078125 C 133.105469 354.078125 127.886719 354.882812 123.269531 356.3125 Z M 107.558594 366.304688 L 0.59375 366.304688 L 0.59375 342.011719 C 8.347656 339.210938 7.75 339.285156 16.167969 338.023438 C 16.472656 335.667969 17.375 330.511719 16.851562 328.289062 C 16.222656 325.625 13.039062 325.945312 13.613281 321.515625 C 14.386719 315.542969 19.796875 318.800781 21.089844 308.175781 C 21.175781 308.300781 21.25 308.476562 21.292969 308.585938 L 23.078125 313.867188 C 24.414062 316.414062 24.992188 315.886719 26.589844 317.632812 L 27.671875 314.34375 C 30.464844 308.726562 34.109375 311.882812 35.578125 300.667969 C 35.886719 298.335938 36.046875 298.703125 35.535156 296.683594 C 35.117188 295.0625 35.015625 297.363281 35.441406 295.519531 L 35.667969 294.832031 C 36.164062 293.160156 35.742188 295.667969 35.910156 293.964844 C 35.058594 293.148438 36.632812 293.78125 34.605469 293 C 35.820312 292.507812 35.621094 292.730469 36.039062 291.6875 C 36.484375 292.960938 36.046875 292.480469 37.0625 293 C 36.273438 293.480469 36.296875 294 36.226562 294.925781 C 35.855469 299.6875 35.976562 308.753906 41.328125 310.628906 L 41.367188 305.433594 L 39.636719 304.53125 C 42.804688 302.273438 41.519531 304.574219 43.003906 299.824219 L 46.535156 287.886719 C 48.066406 282.648438 44.214844 282.78125 47.242188 278.996094 L 48.933594 276.824219 C 49.792969 280.03125 50.515625 278.34375 51.617188 280.945312 C 51.46875 284.066406 49.746094 282.242188 50.636719 286.640625 C 51.703125 291.898438 54.089844 297.25 55.140625 302.496094 C 56.59375 302.417969 55.855469 301.773438 56.574219 302.511719 C 58.039062 304.023438 56.328125 301.972656 56.777344 303.296875 L 56.921875 303.6875 C 56.972656 303.761719 57.78125 304.507812 57.800781 304.527344 C 55.53125 305.675781 56.03125 305.847656 56.476562 308.894531 C 56.707031 310.4375 57.027344 312.03125 57.441406 313.210938 C 63.335938 306.167969 64.898438 308.128906 65.304688 296.378906 C 64.511719 295.898438 66.515625 295.0625 63.945312 296.128906 C 65.371094 294.917969 66.109375 293.445312 64.058594 292.515625 C 65.402344 292.082031 64.988281 292.390625 65.417969 291.164062 C 65.925781 292.464844 65.390625 292.027344 66.675781 292.515625 C 65.371094 293.054688 65.90625 292.5625 65.433594 293.964844 C 65.519531 294.011719 65.683594 294.050781 65.71875 294.0625 C 65.753906 294.074219 65.941406 294.140625 65.976562 294.148438 L 66.304688 294.230469 C 64.816406 296.613281 65.457031 300.875 66.28125 303.859375 C 67.078125 306.710938 68.503906 308.945312 70.476562 310.28125 C 73.851562 312.554688 76.773438 316.640625 73.734375 320.949219 C 72.339844 322.921875 72.398438 321.914062 71.105469 323.382812 C 69.613281 328.558594 71.519531 331.476562 71.660156 335.363281 C 71.78125 338.71875 71.109375 344.011719 71.730469 347.117188 L 75.09375 347.441406 C 75.761719 349.527344 76.6875 351.402344 77.804688 352.796875 C 76.757812 354.464844 77.445312 353.058594 76.835938 353.878906 C 76.296875 354.597656 76.648438 353.488281 76.230469 354.917969 C 77.894531 355.710938 79.8125 356.269531 81.734375 357.359375 C 83.566406 358.398438 85.175781 359.714844 86.574219 360.386719 C 86.820312 354.539062 85.9375 323.484375 86.960938 320.296875 C 88.101562 316.753906 87.125 317.332031 86.660156 314.210938 C 86.125 310.585938 86.644531 302.421875 86.636719 298.304688 C 87.558594 298.070312 86.316406 298.035156 87.3125 298.601562 C 87.785156 298.867188 87.277344 298.820312 87.964844 299.023438 C 88.28125 297.015625 88.171875 295.679688 87.851562 293.863281 C 87.347656 291.011719 91.703125 286.964844 91.738281 282.414062 C 91.804688 272.988281 93.25 278.929688 94.273438 268.761719 L 94.632812 264.683594 C 94.660156 264.574219 94.761719 264.503906 94.78125 264.289062 C 94.800781 264.082031 94.878906 264.027344 94.949219 263.910156 L 95.550781 266.46875 C 95.617188 267.523438 95.554688 268.054688 95.683594 269.175781 C 95.835938 270.511719 95.925781 272.84375 96.222656 273.902344 C 96.589844 275.238281 97.832031 276.65625 98.089844 277.734375 C 99.515625 283.644531 96.046875 280.78125 101.289062 291.003906 C 102.84375 294.042969 101.464844 295.664062 101.949219 299 C 103.164062 298.683594 102.566406 298.132812 103.253906 298.304688 C 103.289062 302.789062 103.679688 309.519531 103.277344 313.761719 C 103.011719 316.589844 102.03125 316.027344 102.332031 318.480469 C 102.640625 320.964844 102.355469 318.734375 102.785156 319.960938 C 104.082031 323.691406 102.792969 349.671875 103.355469 356.480469 C 105.175781 353.222656 107.234375 349.457031 109.246094 345.898438 C 112.285156 340.527344 113.214844 340.019531 113.175781 333.480469 L 115.8125 333.027344 C 116.046875 325.855469 116.097656 327.894531 118.703125 322.089844 C 120.882812 317.238281 122.675781 312.269531 123.96875 307.058594 C 124.476562 305 124.347656 303.347656 124.683594 301.972656 C 125.433594 298.898438 126.042969 300.570312 124.785156 297.363281 C 124.191406 295.84375 123.558594 293.582031 123.4375 292.039062 L 126.410156 290.738281 C 126.523438 290.6875 126.65625 290.636719 126.761719 290.59375 L 128.160156 290.109375 C 132.238281 262.699219 132.128906 232.675781 135.519531 204.746094 C 135.285156 202.921875 133.878906 205.292969 134.066406 198.410156 C 134.992188 197.945312 135.140625 197.699219 136.550781 197.542969 C 136.0625 196.03125 136.566406 197.324219 135.636719 196.230469 C 133.40625 193.613281 136.324219 197.578125 134.835938 195.464844 C 140.742188 195.179688 137.945312 187.980469 138.75 182.199219 C 141.941406 185.949219 135.59375 194.746094 143.03125 195.578125 L 141.328125 197.03125 C 141.453125 197.101562 141.617188 197.183594 141.703125 197.234375 L 142.417969 197.636719 C 142.519531 197.699219 142.648438 197.777344 142.746094 197.832031 C 143.261719 198.148438 143.476562 198.316406 143.839844 198.585938 C 144.335938 204.195312 142.425781 202.5 142.679688 206.4375 C 143.605469 220.613281 148.042969 281.542969 149.78125 290.109375 L 154.808594 292.515625 C 154.425781 294.277344 153.710938 296.054688 153.003906 297.683594 C 151.667969 300.773438 152.734375 299.457031 153.304688 302.378906 C 154.042969 306.179688 154.339844 308.703125 155.601562 312.769531 C 158.886719 323.355469 161.824219 323.835938 162.128906 333.027344 L 162.957031 333.265625 C 167.582031 334.996094 161.238281 332.664062 167.699219 344.0625 C 169.011719 346.382812 170.269531 350.4375 172.703125 351.746094 C 172.554688 347.3125 173.277344 332.109375 172.542969 328.726562 C 172.257812 327.402344 171.363281 327.128906 171.554688 325.789062 C 171.867188 323.566406 170.96875 325.882812 173.261719 324.347656 C 173.207031 320.078125 172.160156 318.847656 174.257812 315.554688 C 176.71875 311.683594 175.0625 311.113281 175.574219 306.976562 C 175.984375 303.640625 176.699219 301.625 176.789062 297.8125 C 176.886719 293.992188 174.902344 293.492188 177.128906 290.101562 C 176.082031 288.554688 174.253906 289.625 176.3125 286.804688 C 177.375 285.339844 178.417969 284.265625 177.714844 282.066406 C 176.78125 279.136719 176.066406 282.207031 176.453125 277.40625 C 176.625 275.199219 175.53125 274.789062 174.824219 273.25 C 173.542969 270.449219 175.910156 267.242188 176.085938 262.671875 C 176.164062 260.632812 176.851562 259.347656 176.535156 257.511719 C 176.035156 254.574219 175.796875 256.492188 176.699219 253.457031 C 175.632812 251.808594 173.921875 253.425781 175.5625 250.425781 C 176.851562 248.070312 176.523438 251.640625 176.070312 247.050781 C 177.371094 246.894531 177.425781 246.828125 178.25 246.160156 C 178.535156 248.179688 179.023438 247.949219 177.929688 249.597656 C 179.679688 250.507812 179.824219 248.800781 179.570312 251.425781 C 179.367188 253.539062 179.015625 251.90625 178.113281 253.488281 L 178.519531 254.15625 C 178.566406 254.269531 178.644531 254.394531 178.683594 254.523438 L 178.769531 267.511719 C 180.402344 267.515625 180.777344 267.839844 181.550781 266.480469 C 182.113281 265.496094 181.722656 264.988281 180.957031 264.132812 L 184.648438 264.871094 C 187.125 265.109375 185.9375 264.644531 186.796875 265.40625 C 187.207031 265.773438 186.339844 265.671875 187.652344 265.800781 C 187.71875 265.804688 188.914062 265.667969 189.140625 265.644531 C 188.359375 266.058594 188.179688 265.9375 187.699219 266.722656 C 186.671875 268.394531 186.964844 272.402344 187.398438 274.136719 C 187.898438 276.140625 188.644531 275.386719 189.601562 277.769531 C 190.203125 279.246094 189.828125 279.730469 191.089844 281.363281 C 192.472656 280.988281 192.113281 280.90625 193.144531 279.976562 C 193.191406 279.929688 193.355469 279.894531 193.390625 279.753906 C 193.425781 279.609375 193.539062 279.582031 193.636719 279.523438 C 194.972656 280.492188 196.222656 281.597656 197.683594 282.261719 C 196.808594 286.382812 194.703125 287.230469 193.152344 290.628906 C 191.929688 293.296875 193.847656 298.121094 193.1875 301.652344 C 192.769531 303.886719 192.3125 303.8125 192.175781 306.964844 C 192.09375 308.878906 192.019531 310.890625 192.152344 312.800781 C 192.320312 315.269531 193.066406 315.902344 193.292969 318.0625 C 193.675781 321.632812 192.300781 323.453125 194.15625 324.820312 C 194.410156 325.007812 194.730469 325.285156 194.796875 325.160156 C 194.839844 325.066406 195.035156 325.242188 195.140625 325.308594 C 194.15625 328.292969 193.738281 327.429688 193.757812 331.074219 L 193.820312 351.355469 C 195.007812 351.90625 195.851562 351.6875 196.800781 352.320312 C 196.84375 358.582031 199.0625 358.351562 202.726562 361.910156 C 204.21875 361.359375 205.59375 360.699219 206.855469 359.550781 C 207.027344 354.304688 205.816406 313.042969 208 308.351562 C 207.816406 316.261719 208.8125 314.996094 213.347656 318.59375 C 222.4375 325.800781 225.449219 340.675781 225.574219 352.320312 C 227.675781 352.613281 230.023438 351.746094 232.179688 351.441406 C 240.355469 350.289062 237.191406 348.371094 245.144531 342.191406 C 246.757812 343.511719 247.714844 345.132812 249.394531 346.613281 C 251.21875 348.214844 252.117188 349.734375 254.097656 350.570312 C 257.90625 345.109375 269.992188 334.972656 274.988281 329.355469 C 278.582031 331.757812 283.925781 338.6875 287.5625 342.125 L 294.585938 350.015625 C 297.105469 348.554688 299.105469 345.699219 301.167969 343.824219 L 307.054688 337.6875 C 308.847656 338.410156 314.027344 344.097656 315.386719 345.601562 L 323.015625 353.558594 C 326.730469 349.589844 323.859375 350.726562 324.855469 345.851562 C 325.527344 342.566406 325.121094 338.378906 325.238281 335.152344 C 325.285156 333.953125 325.433594 332.496094 325.453125 331.109375 L 325.269531 322.679688 C 327.0625 321.566406 327.011719 323.234375 327.25 321.394531 C 327.484375 319.546875 326.910156 320.484375 326.742188 320.265625 C 324.761719 317.671875 324.929688 316.34375 327.457031 314.773438 C 328.984375 315.3125 330.453125 316.710938 329.515625 318.992188 C 328.71875 320.925781 327.84375 319.316406 328.078125 321.378906 C 328.308594 323.347656 328.773438 321.863281 329.800781 322.902344 C 329.054688 327.308594 330.191406 333.542969 330.058594 336.53125 C 329.921875 339.65625 329.835938 343.445312 330.410156 346.453125 C 330.425781 346.53125 330.457031 346.671875 330.46875 346.746094 L 330.691406 348.148438 L 335.257812 347.148438 C 335.339844 345.0625 335.378906 343.191406 335.414062 341.214844 C 335.546875 334.863281 334.894531 336.96875 336.605469 336.023438 C 338.234375 336.902344 337.628906 335.324219 337.863281 338.773438 C 338.035156 341.328125 337.695312 344.261719 338.242188 346.78125 L 342.835938 347.261719 L 343.535156 336.308594 C 343.597656 336.441406 343.757812 336.832031 343.808594 336.753906 C 343.855469 336.671875 343.984375 337.070312 344.050781 337.199219 L 344.207031 336.886719 L 350.875 335.679688 C 352.34375 330.742188 349.0625 329.796875 354.898438 327.140625 C 357.152344 328.542969 356.089844 329.230469 358.671875 329.070312 C 356.441406 322.5625 357.054688 322.890625 360.972656 318.859375 C 362.625 317.15625 363.332031 316.761719 365.207031 315.386719 C 368.3125 313.109375 366.285156 313.152344 367.417969 310.746094 C 367.496094 310.855469 367.535156 311.03125 367.558594 311.125 C 367.589844 311.21875 367.660156 311.390625 367.691406 311.507812 C 368.167969 313.253906 368.398438 314.4375 370.265625 315.703125 C 375.828125 319.457031 378.828125 321.367188 376.382812 329.105469 C 378.25 328.910156 377.273438 329.109375 378.574219 328.289062 C 379.40625 327.773438 378.566406 328.257812 379.4375 327.65625 C 380.117188 327.179688 379.632812 327.472656 380.414062 327.039062 C 381.707031 327.996094 382.734375 328.8125 383.695312 329.664062 C 384.769531 331.558594 382.886719 333.644531 384.746094 335.703125 C 385.300781 334.890625 384.945312 335.5625 385.257812 334.402344 L 385.582031 335.953125 C 387.316406 336.148438 391.257812 336.316406 391.683594 337.5 C 391.726562 337.609375 391.816406 337.769531 391.863281 337.917969 L 392.199219 350.570312 L 396.988281 348.183594 C 397.289062 344.75 396.980469 341.265625 397.339844 337.820312 C 397.417969 337.140625 397.441406 337.148438 397.570312 336.601562 L 397.539062 334.21875 C 397.199219 332.570312 397.265625 331.785156 398.644531 331.953125 C 401.019531 332.777344 399.121094 335.136719 399.113281 335.199219 L 399.304688 336.25 C 400.253906 339.605469 399.722656 343.34375 399.894531 346.964844 L 404.925781 345.082031 C 405.183594 342.558594 405.34375 339.375 405.117188 336.855469 L 405.480469 316.125 L 407.367188 314.777344 C 410.355469 315.910156 409.574219 317.160156 409.328125 320.007812 L 408.597656 320.203125 C 408.550781 320.230469 408.414062 320.300781 408.367188 320.34375 C 408.320312 320.382812 407.609375 319.332031 407.964844 321.320312 C 408.246094 322.890625 408.753906 321.933594 409.644531 322.902344 C 409.042969 326.121094 409.492188 330.609375 409.832031 333.953125 C 410.042969 336.015625 410.046875 334.261719 409.941406 336.125 L 410.027344 343.78125 L 424.421875 342.074219 L 424.28125 329.726562 C 417.070312 329.710938 420.902344 328.460938 416.5625 324.046875 C 416.625 324.050781 422.558594 326.828125 425.703125 322.195312 L 422.96875 321.214844 C 424.167969 320.996094 434.425781 324.503906 437.425781 321.933594 C 435.15625 321.027344 432.746094 322.113281 430.429688 321.097656 C 428.378906 319.835938 430.492188 317.992188 426.761719 315.921875 C 427.234375 315.957031 433.320312 318.457031 435.9375 314.050781 L 433.335938 312.910156 C 436.507812 312.808594 436.46875 314.234375 439.671875 314.457031 L 455.949219 314.457031 C 459.398438 314.25 458.960938 312.765625 462.300781 312.972656 L 459.769531 314.21875 C 460.53125 315.472656 462.285156 316.375 463.78125 316.675781 C 466.429688 317.199219 466.480469 316.09375 468.863281 315.914062 C 466.417969 317.1875 466.488281 319.042969 466.019531 319.964844 C 464.476562 322.972656 461.226562 320.636719 458.289062 321.933594 C 460.957031 324.433594 472.003906 321.070312 472.691406 321.167969 C 470.898438 321.78125 471.332031 321.394531 470.09375 322.484375 C 473.480469 326.292969 477.140625 324.457031 478.761719 324.070312 C 478.667969 324.175781 478.527344 324.304688 478.457031 324.382812 C 476.140625 326.921875 477.359375 326.644531 476.402344 328.386719 C 475.398438 330.207031 473.820312 329.660156 471.433594 329.765625 L 471.523438 332.730469 C 474.09375 330.195312 482.132812 327.289062 486.222656 325.742188 C 486.726562 322.21875 486.894531 318.675781 486.734375 315.160156 C 486.546875 310.90625 486.148438 311.984375 486.011719 310.273438 C 485.890625 308.6875 486.394531 307.59375 486.207031 305.539062 C 483.742188 303.777344 482.597656 304.546875 479.578125 304.097656 C 478.773438 303.144531 477.78125 301.640625 477.125 300.90625 C 474.851562 300.886719 473.636719 301.039062 472.398438 299.753906 C 472.800781 298.714844 471.484375 299.007812 473.96875 298.523438 C 475.0625 298.304688 476.8125 299.105469 481.042969 298.847656 C 484.183594 298.65625 486.984375 297.894531 490.40625 297.53125 C 490.796875 294.574219 490.222656 292.140625 493.433594 292.277344 C 494.660156 294.027344 494.304688 295.316406 494.558594 297.710938 C 502.0625 298.386719 498.734375 299.4375 508.769531 298.132812 C 512.140625 297.699219 511.730469 299.039062 511.847656 299.269531 C 510.707031 300.609375 509.039062 300.476562 506.761719 300.4375 C 506.417969 305.195312 504.773438 303.1875 497.570312 304.753906 C 497.253906 310.574219 498.402344 317.457031 497.277344 322.917969 C 500.394531 322.554688 501.257812 322.988281 502.679688 320.949219 C 505.402344 317.03125 508.515625 313.125 512.46875 310.046875 C 524.417969 300.753906 537.597656 296.070312 553.710938 296.195312 C 563.714844 296.269531 567.007812 297.554688 571.351562 298.90625 C 577.050781 287.230469 589.574219 279.113281 604.113281 279.113281 C 621.152344 279.113281 635.429688 290.257812 639.191406 305.238281 C 676.195312 309.664062 704.382812 332.445312 704.382812 359.878906 C 704.382812 362.050781 704.199219 364.195312 703.855469 366.304688 Z M 426.886719 329.921875 L 437.34375 329.875 L 437.355469 332.261719 L 426.851562 332.347656 Z M 447.113281 329.949219 C 458.96875 332.902344 439.253906 339.472656 447.113281 329.949219 Z M 458.769531 342.441406 C 457.957031 340.472656 457.503906 335.296875 459.859375 334.046875 C 460.949219 333.46875 464.976562 333.410156 466.457031 333.664062 C 469.40625 334.167969 467.789062 333.960938 468.550781 334.683594 C 467.027344 334.902344 464.851562 337.265625 463.5625 338.195312 C 461.589844 339.613281 460.933594 340.921875 458.769531 342.441406 Z M 468.621094 332.59375 L 458.578125 332.296875 L 458.464844 329.828125 L 468.765625 329.855469 L 468.890625 332.0625 Z M 426.753906 341.722656 C 426.585938 331.484375 427.804688 333.503906 437.144531 333.996094 L 437.191406 335.917969 C 437.539062 336.957031 437.546875 338.027344 437.507812 339.289062 C 437.429688 341.910156 437.113281 341.28125 436.773438 343.273438 C 433.519531 342.867188 428.832031 342.890625 426.753906 341.722656 Z M 439.648438 323.71875 L 456.207031 323.550781 L 455.972656 327.1875 L 439.730469 327.144531 Z M 133.058594 308.613281 L 144.847656 308.59375 L 149.09375 327.992188 L 128.714844 327.9375 Z M 180.632812 270.796875 C 179.390625 269.363281 179.453125 269.546875 179.066406 267.679688 L 181.449219 268.078125 C 181.449219 268.730469 181.542969 268.957031 181.355469 269.664062 C 180.703125 272.082031 181.285156 270.046875 180.632812 270.796875 Z M 180.632812 270.796875 " fill-opacity="1" fill-rule="evenodd"/></g><path fill="#f5e8e9" d="M 336.121094 335.035156 C 338.882812 334.683594 338.269531 333.195312 336.859375 331.847656 C 336.335938 332.027344 335.929688 332.082031 335.644531 332.699219 C 334.789062 334.554688 335.796875 334.632812 336.121094 335.035156 Z M 336.121094 335.035156 " fill-opacity="1" fill-rule="evenodd"/><path fill="#f5e8e9" d="M 180.632812 270.796875 C 181.285156 270.046875 180.703125 272.082031 181.355469 269.664062 C 181.542969 268.957031 181.449219 268.730469 181.449219 268.078125 L 179.066406 267.679688 C 179.453125 269.546875 179.390625 269.363281 180.632812 270.796875 Z M 180.632812 270.796875 " fill-opacity="1" fill-rule="evenodd"/><path fill="#f5e8e9" d="M 470.636719 223.484375 C 471.40625 222.800781 472.1875 222.128906 472.960938 221.449219 C 475.554688 219.191406 478.171875 216.957031 480.824219 214.769531 C 482.898438 213.0625 484.984375 211.378906 487.136719 209.769531 C 488.019531 209.113281 488.910156 208.464844 489.824219 207.859375 C 490.503906 207.40625 491.195312 206.964844 491.921875 206.605469 C 493.726562 205.714844 495.882812 205.144531 497.847656 205.835938 C 498.566406 206.082031 500.089844 206.878906 499.132812 207.773438 L 489.40625 216.875 L 487.230469 231.390625 C 487.207031 231.53125 487.15625 231.648438 487.078125 231.765625 L 485.25 234.28125 C 485.035156 234.570312 484.683594 234.699219 484.332031 234.601562 C 483.988281 234.511719 483.742188 234.226562 483.703125 233.863281 L 482.453125 221.992188 L 468.722656 230.664062 C 468.367188 230.890625 467.910156 230.828125 467.628906 230.511719 L 461.957031 224.1875 C 461.785156 223.988281 461.707031 223.75 461.75 223.484375 C 461.789062 223.226562 461.925781 223.015625 462.152344 222.878906 C 462.421875 222.714844 462.847656 222.597656 463.167969 222.566406 C 466.082031 222.28125 467.695312 226.082031 470.636719 223.484375 Z M 470.636719 223.484375 " fill-opacity="1" fill-rule="evenodd"/><path fill="#f5e8e9" d="M 469.242188 213.507812 C 469.691406 213.265625 470.167969 213.070312 470.660156 212.921875 C 472.933594 212.230469 476.722656 212.789062 479.109375 212.871094 C 479.378906 212.882812 479.601562 213.050781 479.683594 213.3125 C 479.769531 213.566406 479.691406 213.835938 479.480469 214.003906 L 476.105469 216.679688 C 475.933594 216.824219 475.71875 216.859375 475.511719 216.789062 L 469.339844 214.667969 C 469.09375 214.585938 468.9375 214.375 468.914062 214.121094 C 468.890625 213.867188 469.019531 213.636719 469.242188 213.507812 Z M 469.242188 213.507812 " fill-opacity="1" fill-rule="evenodd"/><path fill="#f5e8e9" d="M 251.15625 301.160156 C 251.488281 301.167969 366.53125 304.296875 462.691406 229.921875 L 464.441406 232.191406 C 425.957031 264.003906 347.851562 300.636719 251.15625 301.160156 Z M 251.15625 301.160156 " fill-opacity="1" fill-rule="nonzero"/></svg>